<svg width="123" height="63" viewBox="0 0 123 63" fill="none" xmlns="http://www.w3.org/2000/svg">
<path d="M57.0404 30.6582H47.3705C46.2015 30.6582 45.2993 29.7173 45.2993 28.5474V6.63905C45.2993 5.45654 46.2015 4.56647 47.3705 4.56647H56.4178C61.3862 4.56647 64.3723 7.46555 64.3723 11.2293C64.3723 15.0311 62.0469 16.3917 61.2337 16.6841C62.4917 17.002 65.8971 18.4388 65.8971 23.207C65.8844 27.2632 62.5933 30.6582 57.0404 30.6582ZM56.2272 8.40648C56.2272 8.40648 56.6846 8.40648 49.4672 8.40648V14.993C53.5461 14.993 56.2272 14.993 56.2272 14.993C58.9083 14.993 60.1663 13.5053 60.1663 11.6997C60.1663 9.85601 58.9846 8.40648 56.2272 8.40648ZM57.1802 18.7821H49.4672V26.78C49.4672 26.78 51.6146 26.78 57.1802 26.78C60.268 26.78 61.6911 24.7837 61.6911 22.7874C61.6911 20.7911 60.2934 18.7821 57.1802 18.7821ZM77.9432 30.6582C77.9432 30.6582 76.7233 30.6582 71.5262 30.6582C70.3572 30.6582 69.4169 29.7681 69.4169 28.5474V6.63905C69.4169 5.45654 70.3572 4.56647 71.5262 4.56647H77.9432C86.6474 4.56647 91.4633 10.4028 91.4633 17.6123C91.4633 24.8219 86.5966 30.6582 77.9432 30.6582ZM77.6764 8.40648H73.6356V26.8309H77.6764C83.8392 26.8309 87.27 23.1816 87.27 17.625C87.27 12.0049 83.89 8.40648 77.6764 8.40648Z" fill="white"/>
<path d="M10.0765 16.6316C10.013 16.6571 0.165189 20.0139 0.165189 20.0139C0.0635342 19.2001 0 18.3863 0 17.5471C0 14.9786 0.546394 12.5373 1.53753 10.3503C1.53753 10.3503 10.0638 16.3646 10.1146 16.4027C10.1655 16.4409 10.1909 16.479 10.1909 16.5172C10.1909 16.5808 10.1401 16.6062 10.0765 16.6316ZM17.4719 6.10352e-05C14.0156 0.0127763 10.8008 1.01728 8.09426 2.75927C8.09426 2.75927 15.0576 10.1341 15.299 10.3884C15.3499 10.4393 15.3753 10.4647 15.4261 10.4647C15.4642 10.4647 15.5151 10.4393 15.5278 10.3503C15.6167 9.8671 17.4719 6.10352e-05 17.4719 6.10352e-05ZM11.9444 12.6517C11.9444 12.6263 11.9444 12.6009 11.919 12.5627C11.9063 12.5246 7.9799 2.82285 7.9799 2.82285C5.20981 4.62842 2.98611 7.1969 1.60106 10.2231C1.60106 10.2231 11.703 12.7153 11.7665 12.7408C11.792 12.7535 11.8301 12.7535 11.8555 12.7535C11.9063 12.7535 11.9444 12.7153 11.9444 12.6517ZM24.9944 16.6316C25.0579 16.6571 34.9057 20.0139 34.9057 20.0139C35.0201 19.2128 35.0709 18.3863 35.0709 17.5471C35.0709 14.9786 34.5245 12.5373 33.5334 10.3503C33.5334 10.3503 25.0071 16.3646 24.9562 16.4027C24.9054 16.4409 24.88 16.479 24.88 16.5172C24.88 16.5808 24.9308 16.6062 24.9944 16.6316ZM19.5431 10.3503C19.5558 10.4266 19.6067 10.4647 19.6448 10.4647C19.6829 10.4647 19.721 10.4393 19.7718 10.3884C20.0006 10.1468 26.9766 2.75927 26.9766 2.75927C24.2701 1.01728 21.0552 0.0127763 17.599 6.10352e-05C17.599 6.10352e-05 19.4542 9.8671 19.5431 10.3503ZM23.2154 12.7535C23.2408 12.7535 23.2789 12.7535 23.3043 12.7408C23.3806 12.7153 33.4698 10.2231 33.4698 10.2231C32.0721 7.1969 29.8484 4.62842 27.0783 2.82285C27.0783 2.82285 23.1519 12.5119 23.1265 12.5627C23.1137 12.6009 23.101 12.6263 23.101 12.6517C23.1137 12.7153 23.1646 12.7535 23.2154 12.7535Z" fill="white"/>
<path d="M17.5353 35.09C26.3284 35.09 33.5967 28.618 34.8674 20.1878L28.3361 21.1033C28.2344 21.116 28.1963 21.1668 28.1709 21.2431C26.8748 25.0195 23.6091 27.8932 19.5557 28.6307C21.0932 27.8805 22.1606 26.2911 22.1606 24.4601C22.1606 21.9043 20.0893 19.8317 17.5353 19.8317C14.9812 19.8317 12.91 21.9043 12.91 24.4601C12.91 26.2911 13.9773 27.8805 15.5149 28.6307C11.4614 27.8932 8.19573 25.0195 6.89963 21.2431C6.87422 21.1668 6.8361 21.116 6.73445 21.1033L0.203125 20.1878C1.47381 28.618 8.74213 35.09 17.5353 35.09Z" fill="white"/>
<path d="M52.5695 48.7711H51.9596C51.769 48.7711 51.7308 48.7584 51.6673 48.5804L50.7016 45.8975H47.3216L46.3177 48.5931C46.2542 48.7584 46.2161 48.7711 46.0509 48.7711H45.4918C45.441 48.7711 45.4028 48.7457 45.4028 48.6821C45.4028 48.6567 45.4028 48.6058 45.4282 48.555L48.7066 40.0612C48.732 39.9849 48.7956 39.934 48.8718 39.934H49.3292C49.4055 39.934 49.4436 39.9595 49.4817 40.0485L52.6839 48.5677C52.6966 48.6185 52.7093 48.644 52.7093 48.6694C52.722 48.7584 52.633 48.7711 52.5695 48.7711ZM49.0624 41.231L47.5757 45.2236H50.4856L49.0624 41.231Z" fill="white"/>
<path d="M58.5792 48.7706H58.198C58.0202 48.7706 57.9566 48.7197 57.9566 48.5417L57.9439 47.995C57.4992 48.5417 56.737 48.885 55.9619 48.885C54.107 48.885 53.3574 47.3592 53.3574 45.6808C53.3574 43.7226 54.5263 42.4384 56.1652 42.4384C56.7751 42.4384 57.5247 42.7181 57.9185 43.2268V42.7309V39.9335C57.9185 39.7809 57.9439 39.7173 58.0837 39.7046L58.5411 39.6411H58.5538C58.5665 39.6411 58.5792 39.6411 58.5919 39.6411C58.6935 39.6411 58.7316 39.7173 58.7316 39.8445V42.6927V48.529C58.7316 48.6689 58.6681 48.7706 58.5792 48.7706ZM57.9058 44.1295C57.6263 43.5446 56.9275 43.0742 56.216 43.0742C54.9964 43.0742 54.196 44.0278 54.196 45.6427C54.196 47.1939 54.9201 48.2238 56.089 48.2238C56.7751 48.2238 57.5374 47.7915 57.9058 47.2448V44.1295Z" fill="white"/>
<path d="M64.9321 42.7576L62.8612 48.5812C62.8104 48.7083 62.7342 48.7592 62.6198 48.7592H62.1243C61.9719 48.7592 61.8956 48.6956 61.8575 48.5812L59.812 42.7703C59.7993 42.7448 59.7993 42.7321 59.7993 42.7067C59.7993 42.6304 59.8628 42.5668 59.9772 42.5668H60.4219C60.5997 42.5668 60.6505 42.605 60.6887 42.7067L62.4165 47.8055H62.442L64.1317 42.7448C64.1698 42.6177 64.2588 42.5668 64.3985 42.5668H64.7797C64.8686 42.5668 64.9448 42.605 64.9448 42.694C64.9448 42.7194 64.9448 42.7321 64.9321 42.7576Z" fill="white"/>
<path d="M71.2585 48.7747H70.7757C70.2802 48.7747 70.0515 48.3551 70.0515 47.8465V47.6812C69.7974 48.317 68.9208 48.8891 68.0695 48.8891C66.3162 48.8891 65.5667 47.376 65.5667 45.7739C65.5667 43.6632 66.7863 42.4425 68.2855 42.4425C68.9081 42.4425 69.6195 42.6968 70.0515 43.2563L70.0642 42.7858C70.0642 42.6332 70.1532 42.5824 70.2929 42.5824H70.6741C70.8138 42.5824 70.8646 42.6587 70.8646 42.8112V47.3252C70.8646 47.6812 70.8646 47.9355 70.9155 48.0372C70.9663 48.1517 71.0552 48.1898 71.1823 48.1898H71.2712C71.3728 48.1898 71.411 48.2152 71.411 48.3297V48.6476C71.4237 48.7493 71.3855 48.7747 71.2585 48.7747ZM70.0388 44.1591C69.7085 43.4597 69.0097 43.0783 68.3236 43.0783C67.2183 43.0783 66.4052 44.0701 66.4052 45.7103C66.4052 47.3506 67.2183 48.1771 68.1331 48.1771C69.0732 48.1771 69.7847 47.4015 70.0388 46.6258V44.1591Z" fill="white"/>
<path d="M77.4248 48.7747H77.0182C76.8785 48.7747 76.8149 48.6984 76.8149 48.5458V44.8838C76.8149 43.8539 76.5736 43.091 75.392 43.091C74.744 43.091 73.9563 43.4597 73.4608 43.9175V48.5458C73.4608 48.6984 73.3973 48.7747 73.2575 48.7747H72.851C72.7112 48.7747 72.6477 48.6984 72.6477 48.5458V42.8112C72.6477 42.6587 72.7112 42.5824 72.851 42.5824H73.2448C73.3846 42.5824 73.4481 42.6587 73.4481 42.8112L73.4608 43.2436C74.058 42.7222 74.8711 42.4425 75.608 42.4425C77.1072 42.4425 77.6408 43.358 77.6408 44.7567V48.5458C77.6281 48.6857 77.5645 48.7747 77.4248 48.7747Z" fill="white"/>
<path d="M83.6261 48.5167C83.1179 48.7583 82.508 48.8727 81.9617 48.8727C79.9289 48.8727 79.0142 47.5122 79.0142 45.6303C79.0142 43.7993 80.1195 42.4261 82.0125 42.4261C82.5589 42.4261 83.2195 42.5914 83.6134 42.8075C83.6896 42.8457 83.7277 42.8966 83.7277 42.9474C83.7277 42.9728 83.715 43.011 83.7023 43.0491L83.6261 43.278C83.6007 43.3416 83.5753 43.4179 83.499 43.4179C83.4736 43.4179 83.4482 43.4052 83.4101 43.3924C83.0035 43.2017 82.5334 43.0491 81.9998 43.0491C80.7166 43.0491 79.8654 44.0409 79.8654 45.5922C79.8654 46.94 80.4244 48.237 81.9617 48.237C82.5207 48.237 83.0671 48.0971 83.4482 47.9318C83.4863 47.9191 83.5117 47.9064 83.5371 47.9064C83.6007 47.9064 83.6515 47.9572 83.6642 48.0208L83.7277 48.2497C83.7404 48.2878 83.7404 48.326 83.7404 48.3514C83.7531 48.4404 83.715 48.4786 83.6261 48.5167Z" fill="white"/>
<path d="M85.3271 41.6255C85.0348 41.6255 84.8062 41.422 84.8062 41.1296C84.8062 40.8371 85.0348 40.6337 85.3271 40.6337C85.6193 40.6337 85.8734 40.8371 85.8734 41.1296C85.8607 41.422 85.6193 41.6255 85.3271 41.6255ZM85.5303 48.7714H85.1238C84.984 48.7714 84.9205 48.6951 84.9205 48.5426V42.808C84.9205 42.6554 84.984 42.5791 85.1238 42.5791H85.5303C85.6701 42.5791 85.7336 42.6554 85.7336 42.808V48.5426C85.7336 48.6824 85.6701 48.7714 85.5303 48.7714Z" fill="white"/>
<path d="M92.4048 48.7747H91.9982C91.8585 48.7747 91.7949 48.6984 91.7949 48.5458V44.8838C91.7949 43.8539 91.5535 43.091 90.372 43.091C89.724 43.091 88.9363 43.4597 88.4408 43.9175V48.5458C88.4408 48.6984 88.3773 48.7747 88.2375 48.7747H87.831C87.6912 48.7747 87.6277 48.6984 87.6277 48.5458V42.8112C87.6277 42.6587 87.6912 42.5824 87.831 42.5824H88.2248C88.3646 42.5824 88.4281 42.6587 88.4281 42.8112L88.4408 43.2436C89.0379 42.7222 89.8511 42.4425 90.588 42.4425C92.0871 42.4425 92.6208 43.358 92.6208 44.7567V48.5458C92.608 48.6857 92.5445 48.7747 92.4048 48.7747Z" fill="white"/>
<path d="M98.5421 50.9855C98.1101 51.3542 97.4494 51.6085 96.5855 51.6085C96.0138 51.6085 95.3023 51.4051 94.7941 51.1635C94.6924 51.1126 94.667 51.0618 94.667 51.0109C94.667 50.9855 94.667 50.9601 94.6797 50.9346L94.8068 50.604C94.8322 50.5405 94.8703 50.4896 94.9338 50.4896C94.9592 50.4896 95.0101 50.4896 95.0482 50.515C95.531 50.7312 96.0646 50.9219 96.5728 50.9219C97.1953 50.9219 97.6781 50.8075 98.0211 50.4514C98.3642 50.0954 98.5421 49.4978 98.5421 48.595V47.9593C98.1101 48.4806 97.297 48.7857 96.6109 48.7857C94.756 48.7857 93.9937 47.3362 93.9937 45.6578C93.9937 43.9285 94.9592 42.4536 96.7888 42.4536C97.4494 42.4536 98.1355 42.7079 98.5548 43.2419L98.5675 42.7969C98.5675 42.6316 98.6564 42.5934 98.7961 42.5934H99.1773C99.3171 42.5934 99.3679 42.6697 99.3679 42.8223V47.1836V48.506C99.3933 49.6122 99.1519 50.4514 98.5421 50.9855ZM98.5675 44.132C98.2752 43.5343 97.5511 43.0766 96.8396 43.0766C95.5564 43.0766 94.8576 44.1192 94.8576 45.5815C94.8576 46.764 95.2896 48.0864 96.7125 48.0864C97.3986 48.0864 98.199 47.705 98.5675 47.1582V44.132Z" fill="white"/>
<path d="M106.954 48.6816C106.713 48.7706 106.281 48.8723 105.899 48.8723C105.404 48.8723 104.858 48.7324 104.578 48.44C104.222 48.0712 104.197 47.5372 104.197 46.8379V43.1759H103.435C103.32 43.1759 103.295 43.1504 103.295 43.0487V42.7054C103.295 42.591 103.32 42.5783 103.409 42.5783H104.197V41.0779C104.197 40.9253 104.222 40.8744 104.362 40.849L104.807 40.7854H104.82C104.832 40.7854 104.845 40.7854 104.858 40.7854C104.959 40.7854 105.01 40.8617 105.01 40.9888V42.5783H106.56C106.662 42.5783 106.7 42.6037 106.7 42.7181V43.0487C106.7 43.1504 106.662 43.1759 106.547 43.1759H105.01V46.9777C105.01 47.4228 105.048 47.7915 105.264 48.0077C105.417 48.1603 105.658 48.2493 106.026 48.2493C106.319 48.2493 106.649 48.1603 106.827 48.1094C106.865 48.0967 106.903 48.0967 106.929 48.0967C107.005 48.0967 107.005 48.1348 107.017 48.1857L107.081 48.5036C107.081 48.529 107.081 48.5417 107.081 48.5544C107.081 48.6053 107.043 48.6434 106.954 48.6816Z" fill="white"/>
<path d="M112.94 48.7706H112.533C112.393 48.7706 112.33 48.6943 112.33 48.5417V44.8797C112.33 43.8625 112.076 43.0869 110.92 43.0869C110.272 43.0869 109.471 43.4556 108.976 43.9134V48.5417C108.976 48.6943 108.912 48.7706 108.772 48.7706H108.366C108.226 48.7706 108.163 48.6943 108.163 48.5417V39.9335C108.163 39.7809 108.188 39.7301 108.328 39.7046L108.772 39.6411H108.785C108.798 39.6411 108.811 39.6411 108.823 39.6411C108.925 39.6411 108.976 39.7173 108.976 39.8445V43.2268C109.573 42.7054 110.386 42.4257 111.123 42.4257C112.622 42.4257 113.156 43.3412 113.156 44.7399V48.529C113.143 48.6816 113.079 48.7706 112.94 48.7706Z" fill="white"/>
<path d="M119.458 45.6939H118.327H115.38C115.38 47.0544 116.066 48.1861 117.54 48.1861C118.099 48.1861 118.759 48.0589 119.14 47.8936C119.179 47.8809 119.204 47.8682 119.229 47.8682C119.293 47.8682 119.344 47.9191 119.356 47.9827L119.42 48.2751C119.445 48.3133 119.445 48.3514 119.445 48.3768C119.445 48.4404 119.407 48.4786 119.318 48.5167C118.81 48.7583 118.01 48.8727 117.463 48.8727C115.494 48.8727 114.529 47.5503 114.529 45.643C114.529 43.8502 115.621 42.4261 117.425 42.4261C118.937 42.4261 119.814 43.5832 119.814 45.0836C119.814 45.1599 119.814 45.2489 119.814 45.3252C119.814 45.6303 119.776 45.6939 119.458 45.6939ZM117.4 43.0618C116.193 43.0618 115.52 44.0409 115.405 45.109H118.975C118.988 45.02 118.988 44.9437 118.988 44.8547C118.988 43.8756 118.48 43.0618 117.4 43.0618Z" fill="white"/>
<path d="M53.7127 56.8702L51.9719 62.6938C51.9338 62.8336 51.8321 62.8718 51.7178 62.8718H51.1968C51.0443 62.8718 50.9681 62.8082 50.9427 62.6938L49.6211 57.9891L48.3123 62.6938C48.2742 62.8336 48.1726 62.8718 48.0582 62.8718H47.5499C47.3974 62.8718 47.3212 62.8082 47.2831 62.6938L45.5422 56.8829C45.5422 56.8575 45.5295 56.832 45.5295 56.8193C45.5295 56.7303 45.5931 56.6794 45.7074 56.6794H46.1522C46.3301 56.6794 46.3936 56.7176 46.419 56.8193L47.8295 61.9054H47.8549L49.2781 56.832C49.3162 56.7176 49.367 56.6794 49.4814 56.6794H49.888C49.9642 56.6794 50.0151 56.7049 50.0405 56.8066L51.5145 61.9054H51.5399L52.8995 56.8575C52.9376 56.7303 53.0266 56.6794 53.1664 56.6794H53.5476C53.6365 56.6794 53.7 56.7176 53.7 56.7939C53.7254 56.8193 53.7255 56.8447 53.7127 56.8702Z" fill="white"/>
<path d="M57.2443 62.9978C55.3131 62.9978 54.4619 61.5865 54.4619 59.7682C54.4619 57.9753 55.4656 56.5512 57.3205 56.5512C59.2517 56.5512 60.1284 57.9117 60.1284 59.7682C60.1284 61.561 59.1119 62.9978 57.2443 62.9978ZM57.3332 57.1743C55.8086 57.1743 55.3259 58.5348 55.3259 59.73C55.3259 60.9888 55.7578 62.3621 57.2697 62.3621C58.7562 62.3621 59.2898 61.0651 59.2898 59.7809C59.2771 58.5221 58.7943 57.1743 57.3332 57.1743Z" fill="white"/>
<path d="M64.1956 57.1503C64.1829 57.2139 64.1448 57.252 64.094 57.252C64.0813 57.252 64.0813 57.252 64.0686 57.252C63.9415 57.2266 63.8018 57.2012 63.662 57.2012C63.2046 57.2012 62.6837 57.5445 62.3534 58.0658V62.6433C62.3534 62.7959 62.2899 62.8722 62.1501 62.8722H61.7436C61.6038 62.8722 61.5403 62.7959 61.5403 62.6433V56.9087C61.5403 56.7561 61.6038 56.6798 61.7436 56.6798H62.1374C62.2772 56.6798 62.3407 56.7561 62.3407 56.9087L62.3534 57.3538C62.6075 56.9723 63.1538 56.54 63.7891 56.54C63.878 56.54 64.0305 56.5527 64.1575 56.5781C64.2337 56.5908 64.2592 56.6417 64.2592 56.6926C64.2592 56.7053 64.2592 56.7053 64.2592 56.718L64.1956 57.1503Z" fill="white"/>
<path d="M65.9121 62.8804H65.5055C65.3658 62.8804 65.3022 62.8041 65.3022 62.6515V54.0433C65.3022 53.8907 65.3277 53.8399 65.4674 53.8144L65.9121 53.7509H65.9248C65.9375 53.7509 65.9502 53.7509 65.9629 53.7509C66.0645 53.7509 66.1154 53.8271 66.1154 53.9543V62.6388C66.1154 62.8041 66.0518 62.8804 65.9121 62.8804Z" fill="white"/>
<path d="M72.7342 62.8804H72.3658C72.1879 62.8804 72.1244 62.8296 72.1244 62.6515L72.1117 62.1048C71.667 62.6515 70.9047 62.9949 70.1297 62.9949C68.2747 62.9949 67.5251 61.469 67.5251 59.7906C67.5251 57.8325 68.694 56.5482 70.333 56.5482C70.9428 56.5482 71.6924 56.8279 72.0862 57.3366V56.8407V54.0433C72.0862 53.8907 72.1117 53.8271 72.2514 53.8144L72.7088 53.7509H72.7215C72.7342 53.7509 72.7469 53.7509 72.7596 53.7509C72.8612 53.7509 72.8994 53.8271 72.8994 53.9543V56.8025V62.6388C72.8867 62.7914 72.8231 62.8804 72.7342 62.8804ZM72.0608 58.2393C71.7813 57.6544 71.0826 57.184 70.3711 57.184C69.1514 57.184 68.351 58.1376 68.351 59.7525C68.351 61.3037 69.0752 62.3337 70.244 62.3337C70.9301 62.3337 71.6924 61.9013 72.0608 61.3546V58.2393Z" fill="white"/>
<path d="M79.8874 62.9978C77.9562 62.9978 77.105 61.5865 77.105 59.7682C77.105 57.9753 78.1087 56.5512 79.9636 56.5512C81.8948 56.5512 82.7714 57.9117 82.7714 59.7682C82.7587 61.561 81.7423 62.9978 79.8874 62.9978ZM79.9636 57.1743C78.439 57.1743 77.9562 58.5348 77.9562 59.73C77.9562 60.9888 78.3882 62.3621 79.9001 62.3621C81.3866 62.3621 81.9202 61.0651 81.9202 59.7809C81.9202 58.5221 81.4247 57.1743 79.9636 57.1743Z" fill="white"/>
<path d="M87.6015 54.0466L87.5125 54.3899C87.4998 54.428 87.4744 54.4662 87.4236 54.4662C87.3982 54.4662 87.3728 54.4535 87.322 54.4408C87.1441 54.3645 86.7756 54.2882 86.4834 54.2882C85.5433 54.2882 85.2638 54.8858 85.2638 56.0556V56.6786H86.9408C87.0552 56.6786 87.0933 56.7041 87.0933 56.8058V57.1364C87.0933 57.2508 87.0552 57.2763 86.9535 57.2763H85.2638V62.6421C85.2638 62.7947 85.2002 62.871 85.0605 62.871H84.6539C84.5142 62.871 84.4506 62.7947 84.4506 62.6421V57.2763H83.6629C83.574 57.2763 83.5486 57.2635 83.5486 57.1491V56.8058C83.5486 56.7041 83.574 56.6786 83.6883 56.6786H84.4506V56.5006C84.4506 56.0047 84.4633 55.6868 84.4888 55.4834C84.6031 54.339 85.3019 53.6524 86.4326 53.6524C86.7884 53.6524 87.2076 53.7414 87.4871 53.8431C87.5761 53.8813 87.6269 53.9321 87.6269 53.9957C87.6142 54.0084 87.6015 54.0211 87.6015 54.0466Z" fill="white"/>
<path d="M96.167 62.8804H95.7604C95.6207 62.8804 95.5571 62.8041 95.5571 62.6515V58.9895C95.5571 57.9723 95.303 57.1967 94.1469 57.1967C93.4989 57.1967 92.6985 57.5654 92.203 58.0232V62.6515C92.203 62.8041 92.1395 62.8804 91.9997 62.8804H91.5932C91.4534 62.8804 91.3899 62.8041 91.3899 62.6515V54.0433C91.3899 53.8907 91.4153 53.8399 91.5551 53.8144L91.9997 53.7509H92.0124C92.0252 53.7509 92.0379 53.7509 92.0506 53.7509C92.1522 53.7509 92.203 53.8271 92.203 53.9543V57.3366C92.8001 56.8152 93.6133 56.5355 94.3502 56.5355C95.8494 56.5355 96.383 57.451 96.383 58.8497V62.6388C96.3703 62.8041 96.3067 62.8804 96.167 62.8804Z" fill="white"/>
<path d="M102.685 59.8078H101.554H98.6064C98.6064 61.1683 99.2925 62.3 100.766 62.3C101.325 62.3 101.986 62.1728 102.367 62.0075C102.405 61.9948 102.431 61.9821 102.456 61.9821C102.52 61.9821 102.57 62.033 102.583 62.0966L102.647 62.389C102.659 62.4271 102.659 62.4653 102.659 62.4907C102.659 62.5543 102.621 62.5924 102.532 62.6306C102.024 62.8722 101.224 62.9866 100.677 62.9866C98.708 62.9866 97.7424 61.6642 97.7424 59.7569C97.7424 57.9641 98.8351 56.54 100.639 56.54C102.151 56.54 103.028 57.6971 103.028 59.1975C103.028 59.2738 103.028 59.3628 103.028 59.4391C103.04 59.7442 103.002 59.8078 102.685 59.8078ZM100.626 57.1757C99.4195 57.1757 98.7461 58.1548 98.6318 59.2229H102.202C102.215 59.1339 102.215 59.0576 102.215 58.9686C102.227 57.9895 101.706 57.1757 100.626 57.1757Z" fill="white"/>
<path d="M109.673 62.8834H109.19C108.695 62.8834 108.466 62.4638 108.466 61.9552V61.7899C108.212 62.4257 107.335 62.9978 106.484 62.9978C104.731 62.9978 103.981 61.4847 103.981 59.8826C103.981 57.7719 105.201 56.5512 106.7 56.5512C107.322 56.5512 108.034 56.8055 108.466 57.365L108.479 56.8945C108.479 56.7419 108.567 56.6911 108.707 56.6911H109.088C109.228 56.6911 109.279 56.7674 109.279 56.9199V61.4339C109.279 61.7899 109.279 62.0442 109.33 62.1459C109.381 62.2604 109.47 62.2985 109.597 62.2985H109.685C109.787 62.2985 109.825 62.3239 109.825 62.4384V62.7563C109.825 62.858 109.787 62.8834 109.673 62.8834ZM108.44 58.2678C108.11 57.5684 107.411 57.187 106.725 57.187C105.62 57.187 104.807 58.1788 104.807 59.819C104.807 61.4593 105.62 62.2858 106.535 62.2858C107.475 62.2858 108.186 61.5102 108.44 60.7345V58.2678Z" fill="white"/>
<path d="M111.643 62.8804H111.237C111.097 62.8804 111.033 62.8041 111.033 62.6515V54.0433C111.033 53.8907 111.059 53.8399 111.199 53.8144L111.643 53.7509H111.656C111.669 53.7509 111.681 53.7509 111.694 53.7509C111.796 53.7509 111.847 53.8271 111.847 53.9543V62.6388C111.859 62.8041 111.796 62.8804 111.643 62.8804Z" fill="white"/>
<path d="M116.611 62.8068C116.37 62.8958 115.938 62.9975 115.557 62.9975C115.061 62.9975 114.515 62.8576 114.235 62.5652C113.88 62.1964 113.854 61.6624 113.854 60.9631V57.3011H113.092C112.978 57.3011 112.952 57.2756 112.952 57.1739V56.8306C112.952 56.7161 112.978 56.7034 113.066 56.7034H113.854V55.203C113.854 55.0505 113.88 54.9996 114.019 54.9742L114.464 54.9106H114.477C114.489 54.9106 114.502 54.9106 114.515 54.9106C114.617 54.9106 114.667 54.9869 114.667 55.114V56.7034H116.217C116.319 56.7034 116.357 56.7289 116.357 56.8433V57.1739C116.357 57.2756 116.319 57.3011 116.205 57.3011H114.667V61.1029C114.667 61.548 114.705 61.9167 114.921 62.1329C115.074 62.2854 115.315 62.3744 115.684 62.3744C115.976 62.3744 116.306 62.2854 116.484 62.2346C116.522 62.2219 116.56 62.2219 116.586 62.2219C116.662 62.2219 116.662 62.26 116.675 62.3109L116.738 62.6288C116.738 62.6542 116.738 62.6669 116.738 62.6796C116.738 62.7178 116.7 62.7559 116.611 62.8068Z" fill="white"/>
<path d="M122.593 62.8804H122.187C122.047 62.8804 121.984 62.8041 121.984 62.6515V58.9895C121.984 57.9723 121.73 57.1967 120.573 57.1967C119.925 57.1967 119.125 57.5654 118.63 58.0232V62.6515C118.63 62.8041 118.566 62.8804 118.426 62.8804H118.02C117.88 62.8804 117.816 62.8041 117.816 62.6515V54.0433C117.816 53.8907 117.842 53.8399 117.982 53.8144L118.426 53.7509H118.439C118.452 53.7509 118.464 53.7509 118.477 53.7509C118.579 53.7509 118.63 53.8271 118.63 53.9543V57.3366C119.227 56.8152 120.04 56.5355 120.777 56.5355C122.276 56.5355 122.809 57.451 122.809 58.8497V62.6388C122.797 62.8041 122.733 62.8804 122.593 62.8804Z" fill="white"/>
</svg>
